<?xml version="1.0" standalone="no"?>
<!DOCTYPE svg PUBLIC "-//W3C//DTD SVG 20010904//EN"
 "http://www.w3.org/TR/2001/REC-SVG-20010904/DTD/svg10.dtd">
<svg version="1.0" xmlns="http://www.w3.org/2000/svg"
 width="999.000000pt" height="999.000000pt" viewBox="0 0 999.000000 999.000000"
 preserveAspectRatio="xMidYMid meet">
<metadata>
Created by potrace 1.11, written by Peter Selinger 2001-2013
</metadata>
<g transform="translate(0.000000,999.000000) scale(0.100000,-0.100000)"
fill="#000000" stroke="none">
<path d="M7655 6326 c-60 -62 -133 -182 -223 -367 -56 -114 -115 -229 -131
-258 -17 -28 -28 -51 -25 -51 4 0 2 -6 -4 -12 -9 -12 -46 -76 -76 -133 -6 -11
-21 -34 -32 -50 -12 -17 -31 -50 -43 -75 -11 -25 -30 -61 -42 -80 -12 -19 -87
-145 -167 -280 -195 -328 -284 -462 -296 -449 -3 2 -25 65 -51 139 -233 679
-245 714 -270 823 -14 62 -70 246 -87 290 -28 68 -82 150 -120 182 -28 24 -68
34 -68 17 0 -5 -11 -14 -24 -22 -23 -12 -41 -65 -71 -215 -11 -53 153 -757
195 -834 5 -11 10 -28 10 -39 0 -10 9 -45 19 -78 10 -32 33 -106 51 -164 93
-304 140 -415 242 -571 47 -71 54 -77 107 -95 65 -21 131 -20 146 3 6 9 19 26
30 37 24 25 13 5 165 277 69 123 129 237 133 253 5 17 18 44 30 61 12 16 30
46 41 65 10 19 33 58 52 86 33 51 119 219 190 374 67 147 185 357 264 475 26
39 53 87 59 108 7 21 27 59 45 85 17 26 42 70 55 97 53 111 80 288 46 301 -9
4 -15 19 -15 39 0 29 -4 34 -30 40 -27 6 -35 15 -31 38 2 16 -55 4 -74 -17z"/>
<path d="M9703 6275 c-14 -10 -29 -12 -49 -6 -16 4 -42 4 -59 -1 -16 -5 -57
-11 -90 -14 -33 -4 -70 -12 -81 -19 -14 -9 -39 -12 -72 -8 -28 3 -73 0 -99 -6
-26 -6 -59 -13 -73 -15 -26 -5 -258 -54 -370 -80 -104 -23 -198 -27 -231 -11
-39 21 -39 20 -95 -29 -55 -50 -133 -78 -221 -81 -90 -3 -132 -57 -150 -197
-9 -71 99 -257 155 -268 34 -7 34 -24 -4 -137 -20 -60 -34 -88 -47 -91 -26 -7
-81 -118 -82 -167 -1 -22 4 -63 10 -91 9 -40 9 -58 -3 -90 -7 -21 -15 -48 -16
-59 -4 -28 -43 -165 -74 -260 -14 -44 -27 -82 -27 -85 -1 -3 -7 -25 -15 -50
-13 -44 -14 -85 -4 -145 16 -103 34 -141 98 -207 25 -26 46 -52 46 -58 0 -23
307 2 359 30 9 4 39 9 66 11 28 1 60 9 72 17 12 7 27 11 33 7 5 -3 10 -2 10 4
0 5 26 12 58 16 31 4 106 16 166 26 60 11 125 19 145 18 20 -2 45 2 56 8 11 6
86 11 170 11 218 1 217 1 210 12 -3 6 1 10 10 10 9 0 13 -4 10 -10 -3 -5 3
-10 14 -10 10 0 21 5 23 12 4 12 36 14 130 8 45 -3 60 -1 70 12 7 9 29 18 48
20 28 2 36 8 38 26 2 12 14 29 27 38 13 9 22 21 19 29 -3 7 -1 16 5 20 6 3 11
24 11 46 0 35 -6 46 -57 94 -63 61 -100 75 -256 101 -198 32 -351 37 -547 19
-19 -2 -78 -7 -130 -10 -52 -4 -111 -8 -130 -10 -19 -2 -73 -6 -120 -10 -47
-3 -106 -8 -131 -11 l-47 -5 9 48 c30 161 55 207 132 244 34 16 67 29 72 29 6
0 46 14 90 31 61 24 99 32 159 34 43 2 83 8 89 14 6 6 23 11 38 11 17 0 34 8
42 20 8 11 24 23 36 25 13 2 32 7 44 11 12 4 33 7 47 6 35 -3 275 82 275 97 0
6 7 16 15 21 8 5 16 22 16 37 1 15 2 33 3 38 1 6 11 15 23 20 32 15 33 33 3
45 -14 5 -24 14 -21 19 13 20 -6 38 -36 36 -23 -2 -32 2 -36 18 -5 19 -10 20
-171 13 -91 -3 -184 -8 -206 -11 -88 -9 -345 -29 -390 -30 -39 0 -43 26 -16
103 35 103 37 105 113 137 38 16 76 38 82 47 7 10 15 16 18 13 6 -6 88 12 130
29 15 6 29 19 32 29 4 15 11 17 41 13 26 -4 37 -2 41 9 4 8 10 12 16 9 5 -3
29 1 54 11 24 9 48 13 54 10 6 -4 19 0 28 8 19 17 108 41 122 32 13 -8 72 16
103 42 16 12 42 23 58 23 17 0 32 6 35 15 4 8 14 15 23 15 9 0 43 14 76 30 33
16 70 30 82 30 12 0 25 5 29 11 5 8 9 8 14 -1 6 -9 12 -10 26 -1 18 10 18 11
-4 17 -21 6 -21 8 18 36 22 16 40 36 40 44 0 9 15 28 32 45 18 16 30 29 28 30
-3 0 -14 2 -25 5 -11 2 -47 6 -80 8 -53 3 -61 6 -73 30 -14 29 -22 30 -71 16
-32 -9 -33 -9 -17 9 22 24 6 35 -21 16z"/>
<path d="M470 5894 c0 -1 -9 -44 -19 -95 -11 -52 -22 -114 -26 -139 -4 -24 -8
-47 -10 -51 -2 -3 -6 -19 -9 -35 -2 -16 -7 -48 -11 -71 l-7 -43 -179 0 -179 0
0 -168 0 -168 145 0 c80 1 145 1 145 1 0 -16 -61 -299 -65 -304 -4 -3 -55 -6
-113 -6 l-107 0 -3 -167 -2 -168 83 0 84 0 -28 -137 c-16 -76 -32 -154 -35
-173 -3 -19 -7 -43 -10 -52 -3 -10 -7 -29 -10 -43 l-4 -25 169 0 169 0 7 38
c4 20 9 48 11 62 3 14 9 48 14 75 6 28 12 61 15 75 3 14 7 36 10 50 3 14 7 36
10 50 3 14 7 37 11 53 l6 27 129 0 c129 0 129 0 124 -22 -3 -13 -23 -110 -43
-216 l-39 -192 171 2 171 3 7 40 c4 22 10 56 13 75 4 19 19 96 34 170 l27 135
177 3 177 2 1 63 c1 34 0 76 -1 92 -1 17 -3 64 -4 105 l-1 75 -137 0 c-75 0
-139 2 -142 5 -3 3 -1 23 4 45 10 47 14 65 45 224 2 13 7 26 10 29 3 3 54 6
113 6 l107 1 3 168 2 167 -81 0 -81 0 7 43 c4 23 9 51 12 62 26 122 52 261 56
310 2 19 -5 20 -162 20 l-165 0 -8 -30 c-4 -16 -10 -48 -14 -70 -3 -22 -12
-67 -19 -100 -8 -33 -17 -76 -20 -95 -3 -19 -10 -59 -16 -87 l-10 -53 -129 0
c-128 0 -129 0 -125 23 3 12 18 90 34 172 17 83 33 165 36 184 3 19 8 38 11
43 3 4 2 9 -3 9 -12 2 -333 5 -333 3z m438 -773 c7 -1 10 -5 7 -11 -6 -9 -41
-180 -52 -250 -3 -19 -7 -37 -9 -39 -5 -6 -226 -8 -242 -3 -13 5 -13 10 2 87
2 11 12 61 21 110 10 50 21 95 26 100 6 8 173 12 247 6z"/>
<path d="M2100 5548 c-62 -172 -119 -326 -125 -343 -13 -31 -59 -156 -61 -165
0 -3 -4 -12 -7 -20 -3 -8 -16 -42 -27 -75 -27 -76 -60 -164 -70 -190 -5 -11
-31 -83 -59 -160 -27 -77 -79 -221 -115 -319 -36 -99 -66 -184 -66 -190 0 -8
81 -11 270 -11 l270 0 14 50 c8 27 27 94 42 148 l28 97 305 -2 306 -3 39 -140
c22 -77 42 -142 44 -145 2 -2 128 -5 281 -5 l278 0 -7 25 c-8 25 -375 1031
-403 1105 -9 22 -61 166 -117 320 -55 154 -106 292 -112 308 l-10 27 -292 0
-293 0 -113 -312z m429 -251 c13 -45 32 -107 42 -138 11 -30 19 -63 19 -72 0
-10 4 -25 10 -35 10 -18 82 -258 84 -281 1 -12 -27 -15 -169 -16 -93 0 -177 1
-186 3 -17 4 -11 27 75 312 14 47 40 136 58 198 18 61 34 112 38 112 3 0 16
-37 29 -83z"/>
<path d="M5214 5693 l1 -168 240 0 240 0 1 155 c0 85 -2 161 -4 168 -3 9 -60
12 -241 12 l-238 0 1 -167z"/>
<path d="M4325 5386 c-85 -21 -146 -56 -217 -127 l-68 -68 -1 32 c0 18 0 58 1
90 l1 57 -38 1 c-127 3 -405 0 -410 -4 -3 -4 -7 -1597 -3 -1755 l0 -22 242 2
242 3 0 298 c0 163 3 297 6 297 4 0 20 -11 36 -25 123 -107 332 -143 496 -85
174 61 312 237 342 435 2 17 5 30 7 30 1 0 3 64 4 142 4 180 -17 287 -82 423
-72 148 -173 238 -311 274 -63 17 -185 18 -247 2z m57 -382 c70 -45 106 -141
106 -285 0 -200 -87 -314 -226 -295 -129 18 -195 131 -188 326 5 117 25 178
78 230 64 63 156 73 230 24z"/>
<path d="M5214 4725 l-1 -645 241 0 241 0 0 643 0 642 -241 3 -240 2 0 -645z"/>
</g>
</svg>
